<svg width="38" height="38" viewBox="0 0 38 38" fill="none" xmlns="http://www.w3.org/2000/svg">
<g clip-path="url(#clip0_40_30)">
<path d="M31 1H7C3.68629 1 1 3.68629 1 7V31C1 34.3137 3.68629 37 7 37H31C34.3137 37 37 34.3137 37 31V7C37 3.68629 34.3137 1 31 1Z" fill="#F7F8FA"/>
<path d="M31 1H7C3.68629 1 1 3.68629 1 7V31C1 34.3137 3.68629 37 7 37H31C34.3137 37 37 34.3137 37 31V7C37 3.68629 34.3137 1 31 1Z" stroke="#F3F3F5" stroke-width="2"/>
<path d="M13.7929 18.7929C13.4024 19.1834 13.4024 19.8166 13.7929 20.2071L20.1569 26.5711C20.5474 26.9616 21.1805 26.9616 21.5711 26.5711C21.9616 26.1805 21.9616 25.5474 21.5711 25.1569L15.9142 19.5L21.5711 13.8431C21.9616 13.4526 21.9616 12.8195 21.5711 12.4289C21.1805 12.0384 20.5474 12.0384 20.1569 12.4289L13.7929 18.7929ZM15.5 18.5H14.5V20.5H15.5V18.5Z" fill="#999898"/>
</g>
<defs>
<clipPath id="clip0_40_30">
<rect width="38" height="38" fill="white"/>
</clipPath>
</defs>
</svg>
