<svg width="323" height="174" viewBox="0 0 323 174" fill="none" xmlns="http://www.w3.org/2000/svg">
<rect width="323" height="174" rx="15" fill="#88AFFA"/>
<path d="M22.215 16.3622H19.5588C19.483 15.9266 19.3433 15.5407 19.1397 15.2045C18.9361 14.8636 18.6828 14.5748 18.3798 14.3381C18.0768 14.1013 17.7311 13.9238 17.3429 13.8054C16.9593 13.6823 16.545 13.6207 16.1 13.6207C15.3092 13.6207 14.6085 13.8196 13.9977 14.2173C13.3869 14.6103 12.9087 15.188 12.563 15.9503C12.2174 16.7079 12.0446 17.6335 12.0446 18.7273C12.0446 19.84 12.2174 20.7775 12.563 21.5398C12.9134 22.2973 13.3916 22.8703 13.9977 23.2585C14.6085 23.642 15.3069 23.8338 16.0929 23.8338C16.5285 23.8338 16.9357 23.777 17.3145 23.6634C17.698 23.545 18.0413 23.3722 18.3443 23.1449C18.652 22.9176 18.9101 22.6383 19.1184 22.3068C19.3315 21.9754 19.4783 21.5966 19.5588 21.1705L22.215 21.1847C22.1156 21.8759 21.9002 22.5246 21.5687 23.1307C21.242 23.7367 20.8135 24.2718 20.2832 24.7358C19.7529 25.1951 19.1326 25.5549 18.4224 25.8153C17.7122 26.071 16.9238 26.1989 16.0574 26.1989C14.7789 26.1989 13.6378 25.9029 12.6341 25.3111C11.6303 24.7192 10.8395 23.8646 10.2619 22.7472C9.68424 21.6297 9.39542 20.2898 9.39542 18.7273C9.39542 17.16 9.68661 15.8201 10.269 14.7074C10.8514 13.59 11.6445 12.7353 12.6483 12.1435C13.652 11.5516 14.7884 11.2557 16.0574 11.2557C16.867 11.2557 17.6199 11.3693 18.3159 11.5966C19.0119 11.8239 19.6322 12.1577 20.1767 12.598C20.7212 13.0336 21.1686 13.5687 21.519 14.2031C21.8741 14.8329 22.1061 15.5526 22.215 16.3622ZM24.5144 30.0909V15.0909H27.0428V16.8949H27.1919C27.3245 16.6297 27.5115 16.348 27.753 16.0497C27.9945 15.7467 28.3212 15.4886 28.7331 15.2756C29.1451 15.0578 29.6706 14.9489 30.3098 14.9489C31.1526 14.9489 31.9126 15.1643 32.5897 15.5952C33.2715 16.0213 33.8113 16.6534 34.209 17.4915C34.6114 18.3248 34.8127 19.3475 34.8127 20.5597C34.8127 21.7576 34.6162 22.7756 34.2232 23.6136C33.8302 24.4517 33.2952 25.0909 32.6181 25.5312C31.941 25.9716 31.1739 26.1918 30.3169 26.1918C29.6919 26.1918 29.1735 26.0876 28.7615 25.8793C28.3496 25.6709 28.0182 25.42 27.7672 25.1264C27.521 24.8281 27.3292 24.5464 27.1919 24.2812H27.0854V30.0909H24.5144ZM27.0357 20.5455C27.0357 21.2509 27.1351 21.8688 27.334 22.3991C27.5376 22.9295 27.8288 23.3437 28.2076 23.642C28.5911 23.9356 29.0551 24.0824 29.5996 24.0824C30.1678 24.0824 30.6436 23.9309 31.0272 23.6278C31.4107 23.3201 31.6995 22.901 31.8936 22.3707C32.0925 21.8357 32.1919 21.2273 32.1919 20.5455C32.1919 19.8684 32.0949 19.267 31.9007 18.7415C31.7066 18.2159 31.4178 17.804 31.0343 17.5057C30.6507 17.2074 30.1725 17.0582 29.5996 17.0582C29.0504 17.0582 28.584 17.2027 28.2005 17.4915C27.8169 17.7803 27.5257 18.1851 27.3269 18.706C27.1328 19.2268 27.0357 19.84 27.0357 20.5455ZM40.1536 26.2202C39.4623 26.2202 38.8397 26.0971 38.2857 25.8509C37.7364 25.5999 37.3008 25.2306 36.9789 24.7429C36.6616 24.2552 36.503 23.6539 36.503 22.9389C36.503 22.3234 36.6167 21.8144 36.8439 21.4119C37.0712 21.0095 37.3813 20.6875 37.7743 20.446C38.1673 20.2045 38.61 20.0223 39.1025 19.8991C39.5996 19.7713 40.1133 19.679 40.6436 19.6222C41.2828 19.5559 41.8013 19.4967 42.199 19.4446C42.5968 19.3878 42.8856 19.3026 43.0655 19.1889C43.2502 19.0705 43.3425 18.8883 43.3425 18.642V18.5994C43.3425 18.0644 43.1839 17.6501 42.8667 17.3565C42.5494 17.063 42.0925 16.9162 41.4959 16.9162C40.8662 16.9162 40.3667 17.0535 39.9973 17.3281C39.6328 17.6027 39.3865 17.9271 39.2587 18.3011L36.8581 17.9602C37.0475 17.2973 37.36 16.7434 37.7956 16.2983C38.2312 15.8485 38.7639 15.5123 39.3936 15.2898C40.0234 15.0625 40.7194 14.9489 41.4817 14.9489C42.0073 14.9489 42.5305 15.0104 43.0513 15.1335C43.5721 15.2566 44.048 15.4602 44.4789 15.7443C44.9097 16.0237 45.2554 16.4048 45.5158 16.8878C45.781 17.3707 45.9135 17.9744 45.9135 18.6989V26H43.4419V24.5014H43.3567C43.2005 24.8045 42.9803 25.0885 42.6962 25.3537C42.4168 25.6141 42.0641 25.8248 41.638 25.9858C41.2166 26.142 40.7218 26.2202 40.1536 26.2202ZM40.8212 24.331C41.3373 24.331 41.7847 24.2292 42.1635 24.0256C42.5423 23.8172 42.8335 23.5426 43.0371 23.2017C43.2454 22.8608 43.3496 22.4891 43.3496 22.0866V20.8011C43.2691 20.8674 43.1318 20.929 42.9377 20.9858C42.7483 21.0426 42.5352 21.0923 42.2985 21.1349C42.0617 21.1776 41.8274 21.2154 41.5953 21.2486C41.3633 21.2817 41.1621 21.3101 40.9917 21.3338C40.6081 21.3859 40.2649 21.4711 39.9618 21.5895C39.6588 21.7079 39.4197 21.8736 39.2445 22.0866C39.0693 22.295 38.9817 22.5649 38.9817 22.8963C38.9817 23.3698 39.1545 23.7273 39.5002 23.9688C39.8458 24.2102 40.2862 24.331 40.8212 24.331ZM48.4988 26V15.0909H53.0797C54.3723 15.0909 55.3927 15.349 56.1408 15.8651C56.8936 16.3812 57.2701 17.1009 57.2701 18.0241C57.2701 18.6349 57.057 19.1345 56.6309 19.5227C56.2095 19.9062 55.6342 20.1643 54.905 20.2969C55.4779 20.3442 55.9798 20.4886 56.4107 20.7301C56.8463 20.9716 57.1872 21.2888 57.4334 21.6818C57.6796 22.0748 57.8027 22.527 57.8027 23.0384C57.8027 23.6397 57.6441 24.1629 57.3269 24.608C57.0144 25.0483 56.5575 25.3916 55.9561 25.6378C55.3596 25.8793 54.6351 26 53.7828 26H48.4988ZM50.9064 23.9759H53.7828C54.2563 23.9759 54.628 23.8646 54.8979 23.642C55.1678 23.4148 55.3027 23.107 55.3027 22.7188C55.3027 22.2689 55.1678 21.9162 54.8979 21.6605C54.628 21.4001 54.2563 21.2699 53.7828 21.2699H50.9064V23.9759ZM50.9064 19.608H53.1294C53.4798 19.608 53.7805 19.5582 54.0314 19.4588C54.2824 19.3546 54.4741 19.2102 54.6067 19.0256C54.7393 18.8362 54.8056 18.6113 54.8056 18.3509C54.8056 17.9768 54.6517 17.6832 54.3439 17.4702C54.0409 17.2571 53.6195 17.1506 53.0797 17.1506H50.9064V19.608ZM67.4174 19.4801V21.5895H61.6078V19.4801H67.4174ZM62.4032 15.0909V26H59.9245V15.0909H62.4032ZM69.1007 15.0909V26H66.6291V15.0909H69.1007ZM74.1806 22.5199L78.5485 15.0909H81.1905V26H78.7047V18.5639L74.351 26H71.7019V15.0909H74.1806V22.5199ZM82.6092 17.2003V15.0909H92.1547V17.2003H88.6248V26H86.139V17.2003H82.6092ZM98.5822 26.2131C97.4885 26.2131 96.5439 25.9858 95.7484 25.5312C94.9577 25.072 94.3493 24.4233 93.9231 23.5852C93.497 22.7424 93.2839 21.7505 93.2839 20.6094C93.2839 19.4872 93.497 18.5024 93.9231 17.6548C94.354 16.8026 94.9553 16.1397 95.7271 15.6662C96.4989 15.188 97.4056 14.9489 98.4473 14.9489C99.1196 14.9489 99.7541 15.0578 100.351 15.2756C100.952 15.4886 101.482 15.8201 101.942 16.2699C102.406 16.7197 102.77 17.2926 103.035 17.9886C103.3 18.6799 103.433 19.5038 103.433 20.4602V21.2486H94.4913V19.5156H100.969C100.964 19.0232 100.857 18.5852 100.649 18.2017C100.441 17.8134 100.149 17.508 99.7754 17.2855C99.4061 17.063 98.9752 16.9517 98.4828 16.9517C97.9572 16.9517 97.4956 17.0795 97.0978 17.3352C96.7001 17.5862 96.39 17.9176 96.1674 18.3295C95.9496 18.7367 95.8384 19.1842 95.8336 19.6719V21.1847C95.8336 21.8191 95.9496 22.3636 96.1816 22.8182C96.4136 23.268 96.738 23.6136 97.1547 23.8551C97.5713 24.0919 98.059 24.2102 98.6177 24.2102C98.9918 24.2102 99.3303 24.1581 99.6333 24.054C99.9364 23.9451 100.199 23.7865 100.422 23.5781C100.644 23.3698 100.812 23.1117 100.926 22.804L103.327 23.0739C103.175 23.7083 102.886 24.2623 102.46 24.7358C102.039 25.2045 101.499 25.5691 100.841 25.8295C100.183 26.0852 99.4297 26.2131 98.5822 26.2131ZM119.781 15.0909V24.0824H121.45V29.5085H118.936V26H110.569V15.0909H113.048V23.8906H117.323V15.0909H119.781ZM128.27 26.2131C127.176 26.2131 126.231 25.9858 125.436 25.5312C124.645 25.072 124.037 24.4233 123.611 23.5852C123.184 22.7424 122.971 21.7505 122.971 20.6094C122.971 19.4872 123.184 18.5024 123.611 17.6548C124.041 16.8026 124.643 16.1397 125.415 15.6662C126.186 15.188 127.093 14.9489 128.135 14.9489C128.807 14.9489 129.442 15.0578 130.038 15.2756C130.64 15.4886 131.17 15.8201 131.629 16.2699C132.093 16.7197 132.458 17.2926 132.723 17.9886C132.988 18.6799 133.121 19.5038 133.121 20.4602V21.2486H124.179V19.5156H130.656C130.651 19.0232 130.545 18.5852 130.336 18.2017C130.128 17.8134 129.837 17.508 129.463 17.2855C129.094 17.063 128.663 16.9517 128.17 16.9517C127.645 16.9517 127.183 17.0795 126.785 17.3352C126.388 17.5862 126.077 17.9176 125.855 18.3295C125.637 18.7367 125.526 19.1842 125.521 19.6719V21.1847C125.521 21.8191 125.637 22.3636 125.869 22.8182C126.101 23.268 126.425 23.6136 126.842 23.8551C127.259 24.0919 127.747 24.2102 128.305 24.2102C128.679 24.2102 129.018 24.1581 129.321 24.054C129.624 23.9451 129.887 23.7865 130.109 23.5781C130.332 23.3698 130.5 23.1117 130.613 22.804L133.014 23.0739C132.863 23.7083 132.574 24.2623 132.148 24.7358C131.726 25.2045 131.186 25.5691 130.528 25.8295C129.87 26.0852 129.117 26.2131 128.27 26.2131ZM142.789 19.4801V21.5895H136.979V19.4801H142.789ZM137.774 15.0909V26H135.296V15.0909H137.774ZM144.472 15.0909V26H142V15.0909H144.472ZM148.813 18.642H152.03C153.422 18.642 154.5 18.9806 155.262 19.6577C156.024 20.3348 156.408 21.2225 156.412 22.321C156.408 23.036 156.233 23.6705 155.887 24.2244C155.546 24.7784 155.049 25.214 154.395 25.5312C153.747 25.8438 152.958 26 152.03 26H147.073V15.0909H149.552V23.8906H152.03C152.589 23.8906 153.048 23.7486 153.408 23.4645C153.768 23.1757 153.948 22.8063 153.948 22.3565C153.948 21.883 153.768 21.4972 153.408 21.1989C153.048 20.9006 152.589 20.7514 152.03 20.7514H148.813V18.642ZM157.769 26V15.0909H160.34V26H157.769Z" fill="white"/>
<g clip-path="url(#clip0_17_169)">
<g clip-path="url(#clip1_17_169)">
<rect x="8" y="40" width="125" height="125" rx="15" fill="white"/>
<g clip-path="url(#clip2_17_169)">
<rect width="125" height="95" transform="translate(8 40)" fill="#C3C3C3"/>
<path d="M42.9909 88V80.3636H44.1642V83.6847H44.9397L47.684 80.3636H49.1954L46.113 84.0426L49.2352 88H47.7238L45.2181 84.7784H44.1642V88H42.9909ZM52.7575 88.179C52.2736 88.179 51.8345 88.0878 51.4401 87.9055C51.0457 87.7199 50.7325 87.4531 50.5004 87.1051C50.2684 86.7538 50.1524 86.3295 50.1524 85.8324C50.1524 85.3949 50.2386 85.0402 50.411 84.7685C50.5833 84.4934 50.8137 84.2779 51.102 84.1222C51.3904 83.9664 51.7085 83.8504 52.0566 83.7741C52.4079 83.6946 52.7609 83.6316 53.1155 83.5852C53.5795 83.5256 53.9557 83.4808 54.2441 83.451C54.5357 83.4179 54.7478 83.3632 54.8804 83.2869C55.0163 83.2107 55.0843 83.0781 55.0843 82.8892V82.8494C55.0843 82.3589 54.95 81.9777 54.6816 81.706C54.4164 81.4342 54.0137 81.2983 53.4735 81.2983C52.9133 81.2983 52.4742 81.4209 52.156 81.6662C51.8378 81.9115 51.6141 82.1733 51.4848 82.4517L50.3712 82.054C50.57 81.59 50.8352 81.2287 51.1666 80.9702C51.5014 80.7083 51.866 80.526 52.2604 80.4233C52.6581 80.3172 53.0492 80.2642 53.4337 80.2642C53.6789 80.2642 53.9607 80.294 54.2789 80.3537C54.6003 80.41 54.9102 80.5277 55.2085 80.7067C55.5102 80.8857 55.7604 81.1558 55.9593 81.517C56.1581 81.8783 56.2575 82.3622 56.2575 82.9688V88H55.0843V86.9659H55.0246C54.945 87.1316 54.8125 87.3089 54.6269 87.4979C54.4413 87.6868 54.1943 87.8475 53.8861 87.9801C53.5779 88.1127 53.2017 88.179 52.7575 88.179ZM52.9365 87.125C53.4005 87.125 53.7916 87.0339 54.1098 86.8516C54.4313 86.6693 54.6733 86.4339 54.8357 86.1456C55.0014 85.8572 55.0843 85.554 55.0843 85.2358V84.1619C55.0345 84.2216 54.9252 84.2763 54.7561 84.326C54.5904 84.3724 54.3982 84.4138 54.1794 84.4503C53.964 84.4834 53.7535 84.5133 53.548 84.5398C53.3459 84.563 53.1818 84.5829 53.0558 84.5994C52.7509 84.6392 52.4659 84.7038 52.2007 84.7933C51.9389 84.8795 51.7268 85.0104 51.5644 85.1861C51.4053 85.3584 51.3257 85.5937 51.3257 85.892C51.3257 86.2997 51.4765 86.608 51.7781 86.8168C52.0831 87.0223 52.4692 87.125 52.9365 87.125ZM58.3991 90.8636V80.3636H59.5326V81.5767H59.6718C59.758 81.4441 59.8773 81.2751 60.0297 81.0696C60.1855 80.8608 60.4076 80.6752 60.6959 80.5128C60.9876 80.3471 61.382 80.2642 61.8792 80.2642C62.5222 80.2642 63.0889 80.425 63.5795 80.7464C64.07 81.0679 64.4528 81.5237 64.7279 82.1136C65.003 82.7036 65.1405 83.3996 65.1405 84.2017C65.1405 85.0104 65.003 85.7114 64.7279 86.3047C64.4528 86.8946 64.0716 87.352 63.5844 87.6768C63.0972 87.9983 62.5354 88.1591 61.8991 88.1591C61.4085 88.1591 61.0158 88.0779 60.7208 87.9155C60.4258 87.7498 60.1988 87.5625 60.0397 87.3537C59.8806 87.1416 59.758 86.9659 59.6718 86.8267H59.5724V90.8636H58.3991ZM59.5525 84.1818C59.5525 84.7585 59.637 85.2673 59.806 85.7081C59.9751 86.1456 60.222 86.4886 60.5468 86.7372C60.8716 86.9825 61.2693 87.1051 61.74 87.1051C62.2305 87.1051 62.6398 86.9759 62.968 86.7173C63.2994 86.4555 63.548 86.1042 63.7137 85.6634C63.8827 85.2192 63.9672 84.7254 63.9672 84.1818C63.9672 83.6449 63.8844 83.161 63.7187 82.7301C63.5563 82.2959 63.3093 81.9529 62.9779 81.701C62.6498 81.4458 62.2371 81.3182 61.74 81.3182C61.2627 81.3182 60.8617 81.4392 60.5368 81.6811C60.212 81.9197 59.9668 82.2545 59.801 82.6854C59.6353 83.1129 59.5525 83.6117 59.5525 84.1818ZM65.9323 81.4574V80.3636H72.1368V81.4574H69.6311V88H68.4578V81.4574H65.9323ZM76.6535 88.1591C75.9177 88.1591 75.283 87.9967 74.7494 87.6719C74.2191 87.3438 73.8097 86.8864 73.5214 86.2997C73.2364 85.7098 73.0938 85.0237 73.0938 84.2415C73.0938 83.4593 73.2364 82.7699 73.5214 82.1733C73.8097 81.5734 74.2108 81.1061 74.7245 80.7713C75.2416 80.4332 75.8448 80.2642 76.5342 80.2642C76.9319 80.2642 77.3247 80.3305 77.7124 80.4631C78.1002 80.5956 78.4532 80.8111 78.7714 81.1094C79.0896 81.4044 79.3431 81.7955 79.532 82.2827C79.721 82.7699 79.8154 83.3698 79.8154 84.0824V84.5795H73.9291V83.5653H78.6222C78.6222 83.1345 78.5361 82.75 78.3637 82.4119C78.1947 82.0739 77.9527 81.8071 77.6379 81.6115C77.3263 81.416 76.9584 81.3182 76.5342 81.3182C76.0669 81.3182 75.6625 81.4342 75.3211 81.6662C74.983 81.8949 74.7229 82.1932 74.5406 82.5611C74.3583 82.929 74.2671 83.3234 74.2671 83.7443V84.4205C74.2671 84.9972 74.3666 85.486 74.5654 85.8871C74.7676 86.2848 75.0477 86.5881 75.4056 86.7969C75.7636 87.0024 76.1795 87.1051 76.6535 87.1051C76.9617 87.1051 77.2401 87.062 77.4887 86.9759C77.7406 86.8864 77.9577 86.7538 78.14 86.5781C78.3223 86.3991 78.4632 86.1771 78.5626 85.9119L79.6961 86.2301C79.5768 86.6146 79.3763 86.9527 79.0945 87.2443C78.8128 87.5327 78.4648 87.758 78.0505 87.9205C77.6362 88.0795 77.1705 88.1591 76.6535 88.1591ZM86.711 83.6449V84.7386H82.4951V83.6449H86.711ZM82.7735 80.3636V88H81.6002V80.3636H82.7735ZM87.6059 80.3636V88H86.4326V80.3636H87.6059ZM89.7487 88V80.3636H90.922V83.6847H91.6975L94.4419 80.3636H95.9532L92.8708 84.0426L95.993 88H94.4816L91.9759 84.7784H90.922V88H89.7487ZM99.5154 88.179C99.0315 88.179 98.5923 88.0878 98.1979 87.9055C97.8035 87.7199 97.4903 87.4531 97.2583 87.1051C97.0262 86.7538 96.9102 86.3295 96.9102 85.8324C96.9102 85.3949 96.9964 85.0402 97.1688 84.7685C97.3411 84.4934 97.5715 84.2779 97.8598 84.1222C98.1482 83.9664 98.4664 83.8504 98.8144 83.7741C99.1657 83.6946 99.5187 83.6316 99.8733 83.5852C100.337 83.5256 100.714 83.4808 101.002 83.451C101.294 83.4179 101.506 83.3632 101.638 83.2869C101.774 83.2107 101.842 83.0781 101.842 82.8892V82.8494C101.842 82.3589 101.708 81.9777 101.439 81.706C101.174 81.4342 100.772 81.2983 100.231 81.2983C99.6711 81.2983 99.232 81.4209 98.9138 81.6662C98.5956 81.9115 98.3719 82.1733 98.2426 82.4517L97.129 82.054C97.3279 81.59 97.593 81.2287 97.9244 80.9702C98.2592 80.7083 98.6238 80.526 99.0182 80.4233C99.4159 80.3172 99.807 80.2642 100.191 80.2642C100.437 80.2642 100.718 80.294 101.037 80.3537C101.358 80.41 101.668 80.5277 101.966 80.7067C102.268 80.8857 102.518 81.1558 102.717 81.517C102.916 81.8783 103.015 82.3622 103.015 82.9688V88H101.842V86.9659H101.782C101.703 87.1316 101.57 87.3089 101.385 87.4979C101.199 87.6868 100.952 87.8475 100.644 87.9801C100.336 88.1127 99.9595 88.179 99.5154 88.179ZM99.6943 87.125C100.158 87.125 100.549 87.0339 100.868 86.8516C101.189 86.6693 101.431 86.4339 101.593 86.1456C101.759 85.8572 101.842 85.554 101.842 85.2358V84.1619C101.792 84.2216 101.683 84.2763 101.514 84.326C101.348 84.3724 101.156 84.4138 100.937 84.4503C100.722 84.4834 100.511 84.5133 100.306 84.5398C100.104 84.563 99.9396 84.5829 99.8137 84.5994C99.5087 84.6392 99.2237 84.7038 98.9585 84.7933C98.6967 84.8795 98.4846 85.0104 98.3222 85.1861C98.1631 85.3584 98.0835 85.5937 98.0835 85.892C98.0835 86.2997 98.2343 86.608 98.536 86.8168C98.8409 87.0223 99.227 87.125 99.6943 87.125Z" fill="black"/>
</g>
<path d="M8 136H133V134H8V136Z" fill="#3561B6" mask="url(#path-5-inside-1_17_169)"/>
<path d="M37.4403 155V143.364H38.8494V148.545H45.054V143.364H46.4631V155H45.054V149.795H38.8494V155H37.4403ZM51.6705 155.205C51.1174 155.205 50.6155 155.1 50.1648 154.892C49.714 154.68 49.3561 154.375 49.0909 153.977C48.8258 153.576 48.6932 153.091 48.6932 152.523C48.6932 152.023 48.7917 151.617 48.9886 151.307C49.1856 150.992 49.4489 150.746 49.7784 150.568C50.108 150.39 50.4716 150.258 50.8693 150.17C51.2708 150.08 51.6742 150.008 52.0795 149.955C52.6098 149.886 53.0398 149.835 53.3693 149.801C53.7027 149.763 53.9451 149.701 54.0966 149.614C54.2519 149.527 54.3295 149.375 54.3295 149.159V149.114C54.3295 148.553 54.1761 148.117 53.8693 147.807C53.5663 147.496 53.1061 147.341 52.4886 147.341C51.8485 147.341 51.3466 147.481 50.983 147.761C50.6193 148.042 50.3636 148.341 50.2159 148.659L48.9432 148.205C49.1705 147.674 49.4735 147.261 49.8523 146.966C50.2348 146.667 50.6515 146.458 51.1023 146.341C51.5568 146.22 52.0038 146.159 52.4432 146.159C52.7235 146.159 53.0455 146.193 53.4091 146.261C53.7765 146.326 54.1307 146.46 54.4716 146.665C54.8163 146.869 55.1023 147.178 55.3295 147.591C55.5568 148.004 55.6705 148.557 55.6705 149.25V155H54.3295V153.818H54.2614C54.1705 154.008 54.0189 154.21 53.8068 154.426C53.5947 154.642 53.3125 154.826 52.9602 154.977C52.608 155.129 52.178 155.205 51.6705 155.205ZM51.875 154C52.4053 154 52.8523 153.896 53.2159 153.688C53.5833 153.479 53.8598 153.21 54.0455 152.881C54.2348 152.551 54.3295 152.205 54.3295 151.841V150.614C54.2727 150.682 54.1477 150.744 53.9545 150.801C53.7652 150.854 53.5455 150.902 53.2955 150.943C53.0492 150.981 52.8087 151.015 52.5739 151.045C52.3428 151.072 52.1553 151.095 52.0114 151.114C51.6629 151.159 51.3371 151.233 51.0341 151.335C50.7348 151.434 50.4924 151.583 50.3068 151.784C50.125 151.981 50.0341 152.25 50.0341 152.591C50.0341 153.057 50.2064 153.409 50.5511 153.648C50.8996 153.883 51.3409 154 51.875 154ZM57.5724 152.773H59.0043C59.0346 153.167 59.2126 153.466 59.5384 153.67C59.8679 153.875 60.2959 153.977 60.8224 153.977C61.3603 153.977 61.8205 153.867 62.2031 153.648C62.5857 153.424 62.777 153.064 62.777 152.568C62.777 152.277 62.705 152.023 62.5611 151.807C62.4171 151.587 62.2145 151.417 61.9531 151.295C61.6918 151.174 61.383 151.114 61.027 151.114H59.527V149.909H61.027C61.5611 149.909 61.955 149.788 62.2088 149.545C62.4664 149.303 62.5952 149 62.5952 148.636C62.5952 148.246 62.4569 147.934 62.1804 147.699C61.9039 147.46 61.5118 147.341 61.0043 147.341C60.4929 147.341 60.0668 147.456 59.7259 147.688C59.3849 147.915 59.205 148.208 59.1861 148.568H57.777C57.7921 148.098 57.9361 147.684 58.2088 147.324C58.4815 146.96 58.8527 146.676 59.3224 146.472C59.7921 146.263 60.33 146.159 60.9361 146.159C61.5497 146.159 62.0819 146.267 62.5327 146.483C62.9872 146.695 63.3376 146.985 63.5838 147.352C63.8338 147.716 63.9588 148.129 63.9588 148.591C63.9588 149.083 63.8205 149.481 63.544 149.784C63.2675 150.087 62.9209 150.303 62.5043 150.432V150.523C62.8338 150.545 63.1198 150.652 63.3622 150.841C63.6084 151.027 63.7997 151.271 63.9361 151.574C64.0724 151.873 64.1406 152.205 64.1406 152.568C64.1406 153.098 63.9986 153.561 63.7145 153.955C63.4304 154.345 63.0402 154.648 62.544 154.864C62.0478 155.076 61.4815 155.182 60.8452 155.182C60.2277 155.182 59.6747 155.081 59.1861 154.881C58.6974 154.676 58.3092 154.394 58.0213 154.034C57.7372 153.67 57.5876 153.25 57.5724 152.773ZM66.0241 155V146.273H69.5923C70.5317 146.273 71.2779 146.485 71.831 146.909C72.384 147.333 72.6605 147.894 72.6605 148.591C72.6605 149.121 72.5033 149.532 72.1889 149.824C71.8745 150.112 71.4711 150.307 70.9787 150.409C71.3007 150.455 71.6132 150.568 71.9162 150.75C72.223 150.932 72.4768 151.182 72.6776 151.5C72.8783 151.814 72.9787 152.201 72.9787 152.659C72.9787 153.106 72.8651 153.506 72.6378 153.858C72.4105 154.21 72.0848 154.489 71.6605 154.693C71.2363 154.898 70.7287 155 70.1378 155H66.0241ZM67.2969 153.773H70.1378C70.5999 153.773 70.9616 153.663 71.223 153.443C71.4844 153.223 71.6151 152.924 71.6151 152.545C71.6151 152.095 71.4844 151.741 71.223 151.483C70.9616 151.222 70.5999 151.091 70.1378 151.091H67.2969V153.773ZM67.2969 149.932H69.5923C69.9522 149.932 70.2609 149.883 70.5185 149.784C70.776 149.682 70.973 149.538 71.1094 149.352C71.2495 149.163 71.3196 148.939 71.3196 148.682C71.3196 148.314 71.1662 148.027 70.8594 147.818C70.5526 147.606 70.1302 147.5 69.5923 147.5H67.2969V149.932ZM77.5767 155.205C77.0237 155.205 76.5218 155.1 76.071 154.892C75.6203 154.68 75.2623 154.375 74.9972 153.977C74.732 153.576 74.5994 153.091 74.5994 152.523C74.5994 152.023 74.6979 151.617 74.8949 151.307C75.0919 150.992 75.3551 150.746 75.6847 150.568C76.0142 150.39 76.3778 150.258 76.7756 150.17C77.1771 150.08 77.5805 150.008 77.9858 149.955C78.5161 149.886 78.946 149.835 79.2756 149.801C79.6089 149.763 79.8513 149.701 80.0028 149.614C80.1581 149.527 80.2358 149.375 80.2358 149.159V149.114C80.2358 148.553 80.0824 148.117 79.7756 147.807C79.4725 147.496 79.0123 147.341 78.3949 147.341C77.7547 147.341 77.2528 147.481 76.8892 147.761C76.5256 148.042 76.2699 148.341 76.1222 148.659L74.8494 148.205C75.0767 147.674 75.3797 147.261 75.7585 146.966C76.1411 146.667 76.5578 146.458 77.0085 146.341C77.4631 146.22 77.91 146.159 78.3494 146.159C78.6297 146.159 78.9517 146.193 79.3153 146.261C79.6828 146.326 80.0369 146.46 80.3778 146.665C80.7225 146.869 81.0085 147.178 81.2358 147.591C81.4631 148.004 81.5767 148.557 81.5767 149.25V155H80.2358V153.818H80.1676C80.0767 154.008 79.9252 154.21 79.7131 154.426C79.5009 154.642 79.2188 154.826 78.8665 154.977C78.5142 155.129 78.0843 155.205 77.5767 155.205ZM77.7812 154C78.3116 154 78.7585 153.896 79.1222 153.688C79.4896 153.479 79.7661 153.21 79.9517 152.881C80.1411 152.551 80.2358 152.205 80.2358 151.841V150.614C80.179 150.682 80.054 150.744 79.8608 150.801C79.6714 150.854 79.4517 150.902 79.2017 150.943C78.9555 150.981 78.715 151.015 78.4801 151.045C78.2491 151.072 78.0616 151.095 77.9176 151.114C77.5691 151.159 77.2434 151.233 76.9403 151.335C76.6411 151.434 76.3987 151.583 76.2131 151.784C76.0313 151.981 75.9403 152.25 75.9403 152.591C75.9403 153.057 76.1127 153.409 76.4574 153.648C76.8059 153.883 77.2472 154 77.7812 154ZM89.8651 150.023V151.273H85.0469V150.023H89.8651ZM85.3651 146.273V155H84.0241V146.273H85.3651ZM90.8878 146.273V155H89.5469V146.273H90.8878ZM94.6776 153.023L98.8821 146.273H100.428V155H99.0866V148.25L94.9048 155H93.3366V146.273H94.6776V153.023ZM106.543 155.182C105.702 155.182 104.976 154.996 104.366 154.625C103.76 154.25 103.293 153.727 102.963 153.057C102.637 152.383 102.474 151.598 102.474 150.705C102.474 149.811 102.637 149.023 102.963 148.341C103.293 147.655 103.751 147.121 104.338 146.739C104.929 146.352 105.618 146.159 106.406 146.159C106.861 146.159 107.31 146.235 107.753 146.386C108.196 146.538 108.599 146.784 108.963 147.125C109.327 147.462 109.616 147.909 109.832 148.466C110.048 149.023 110.156 149.708 110.156 150.523V151.091H103.429V149.932H108.793C108.793 149.439 108.694 149 108.497 148.614C108.304 148.227 108.027 147.922 107.668 147.699C107.312 147.475 106.891 147.364 106.406 147.364C105.872 147.364 105.41 147.496 105.02 147.761C104.634 148.023 104.336 148.364 104.128 148.784C103.92 149.205 103.815 149.655 103.815 150.136V150.909C103.815 151.568 103.929 152.127 104.156 152.585C104.387 153.04 104.707 153.386 105.116 153.625C105.526 153.86 106.001 153.977 106.543 153.977C106.895 153.977 107.213 153.928 107.497 153.83C107.785 153.727 108.033 153.576 108.241 153.375C108.45 153.17 108.611 152.917 108.724 152.614L110.02 152.977C109.884 153.417 109.654 153.803 109.332 154.136C109.01 154.466 108.613 154.723 108.139 154.909C107.666 155.091 107.134 155.182 106.543 155.182Z" fill="black"/>
</g>
<g clip-path="url(#clip3_17_169)">
<rect x="143" y="40" width="125" height="125" rx="15" fill="white"/>
<g clip-path="url(#clip4_17_169)">
<rect width="125" height="95" transform="translate(143 40)" fill="#C3C3C3"/>
<path d="M177.991 88V80.3636H179.164V83.6847H179.94L182.684 80.3636H184.195L181.113 84.0426L184.235 88H182.724L180.218 84.7784H179.164V88H177.991ZM187.758 88.179C187.274 88.179 186.834 88.0878 186.44 87.9055C186.046 87.7199 185.732 87.4531 185.5 87.1051C185.268 86.7538 185.152 86.3295 185.152 85.8324C185.152 85.3949 185.239 85.0402 185.411 84.7685C185.583 84.4934 185.814 84.2779 186.102 84.1222C186.39 83.9664 186.709 83.8504 187.057 83.7741C187.408 83.6946 187.761 83.6316 188.116 83.5852C188.58 83.5256 188.956 83.4808 189.244 83.451C189.536 83.4179 189.748 83.3632 189.88 83.2869C190.016 83.2107 190.084 83.0781 190.084 82.8892V82.8494C190.084 82.3589 189.95 81.9777 189.682 81.706C189.416 81.4342 189.014 81.2983 188.473 81.2983C187.913 81.2983 187.474 81.4209 187.156 81.6662C186.838 81.9115 186.614 82.1733 186.485 82.4517L185.371 82.054C185.57 81.59 185.835 81.2287 186.167 80.9702C186.501 80.7083 186.866 80.526 187.26 80.4233C187.658 80.3172 188.049 80.2642 188.434 80.2642C188.679 80.2642 188.961 80.294 189.279 80.3537C189.6 80.41 189.91 80.5277 190.209 80.7067C190.51 80.8857 190.76 81.1558 190.959 81.517C191.158 81.8783 191.258 82.3622 191.258 82.9688V88H190.084V86.9659H190.025C189.945 87.1316 189.812 87.3089 189.627 87.4979C189.441 87.6868 189.194 87.8475 188.886 87.9801C188.578 88.1127 188.202 88.179 187.758 88.179ZM187.937 87.125C188.401 87.125 188.792 87.0339 189.11 86.8516C189.431 86.6693 189.673 86.4339 189.836 86.1456C190.001 85.8572 190.084 85.554 190.084 85.2358V84.1619C190.035 84.2216 189.925 84.2763 189.756 84.326C189.59 84.3724 189.398 84.4138 189.179 84.4503C188.964 84.4834 188.754 84.5133 188.548 84.5398C188.346 84.563 188.182 84.5829 188.056 84.5994C187.751 84.6392 187.466 84.7038 187.201 84.7933C186.939 84.8795 186.727 85.0104 186.564 85.1861C186.405 85.3584 186.326 85.5937 186.326 85.892C186.326 86.2997 186.477 86.608 186.778 86.8168C187.083 87.0223 187.469 87.125 187.937 87.125ZM193.399 90.8636V80.3636H194.533V81.5767H194.672C194.758 81.4441 194.877 81.2751 195.03 81.0696C195.186 80.8608 195.408 80.6752 195.696 80.5128C195.988 80.3471 196.382 80.2642 196.879 80.2642C197.522 80.2642 198.089 80.425 198.579 80.7464C199.07 81.0679 199.453 81.5237 199.728 82.1136C200.003 82.7036 200.141 83.3996 200.141 84.2017C200.141 85.0104 200.003 85.7114 199.728 86.3047C199.453 86.8946 199.072 87.352 198.584 87.6768C198.097 87.9983 197.535 88.1591 196.899 88.1591C196.409 88.1591 196.016 88.0779 195.721 87.9155C195.426 87.7498 195.199 87.5625 195.04 87.3537C194.881 87.1416 194.758 86.9659 194.672 86.8267H194.572V90.8636H193.399ZM194.552 84.1818C194.552 84.7585 194.637 85.2673 194.806 85.7081C194.975 86.1456 195.222 86.4886 195.547 86.7372C195.872 86.9825 196.269 87.1051 196.74 87.1051C197.23 87.1051 197.64 86.9759 197.968 86.7173C198.299 86.4555 198.548 86.1042 198.714 85.6634C198.883 85.2192 198.967 84.7254 198.967 84.1818C198.967 83.6449 198.884 83.161 198.719 82.7301C198.556 82.2959 198.309 81.9529 197.978 81.701C197.65 81.4458 197.237 81.3182 196.74 81.3182C196.263 81.3182 195.862 81.4392 195.537 81.6811C195.212 81.9197 194.967 82.2545 194.801 82.6854C194.635 83.1129 194.552 83.6117 194.552 84.1818ZM200.932 81.4574V80.3636H207.137V81.4574H204.631V88H203.458V81.4574H200.932ZM211.653 88.1591C210.918 88.1591 210.283 87.9967 209.749 87.6719C209.219 87.3438 208.81 86.8864 208.521 86.2997C208.236 85.7098 208.094 85.0237 208.094 84.2415C208.094 83.4593 208.236 82.7699 208.521 82.1733C208.81 81.5734 209.211 81.1061 209.725 80.7713C210.242 80.4332 210.845 80.2642 211.534 80.2642C211.932 80.2642 212.325 80.3305 212.712 80.4631C213.1 80.5956 213.453 80.8111 213.771 81.1094C214.09 81.4044 214.343 81.7955 214.532 82.2827C214.721 82.7699 214.815 83.3698 214.815 84.0824V84.5795H208.929V83.5653H213.622C213.622 83.1345 213.536 82.75 213.364 82.4119C213.195 82.0739 212.953 81.8071 212.638 81.6115C212.326 81.416 211.958 81.3182 211.534 81.3182C211.067 81.3182 210.662 81.4342 210.321 81.6662C209.983 81.8949 209.723 82.1932 209.541 82.5611C209.358 82.929 209.267 83.3234 209.267 83.7443V84.4205C209.267 84.9972 209.367 85.486 209.565 85.8871C209.768 86.2848 210.048 86.5881 210.406 86.7969C210.764 87.0024 211.18 87.1051 211.653 87.1051C211.962 87.1051 212.24 87.062 212.489 86.9759C212.741 86.8864 212.958 86.7538 213.14 86.5781C213.322 86.3991 213.463 86.1771 213.563 85.9119L214.696 86.2301C214.577 86.6146 214.376 86.9527 214.095 87.2443C213.813 87.5327 213.465 87.758 213.051 87.9205C212.636 88.0795 212.171 88.1591 211.653 88.1591ZM221.711 83.6449V84.7386H217.495V83.6449H221.711ZM217.774 80.3636V88H216.6V80.3636H217.774ZM222.606 80.3636V88H221.433V80.3636H222.606ZM224.749 88V80.3636H225.922V83.6847H226.698L229.442 80.3636H230.953L227.871 84.0426L230.993 88H229.482L226.976 84.7784H225.922V88H224.749ZM234.515 88.179C234.031 88.179 233.592 88.0878 233.198 87.9055C232.803 87.7199 232.49 87.4531 232.258 87.1051C232.026 86.7538 231.91 86.3295 231.91 85.8324C231.91 85.3949 231.996 85.0402 232.169 84.7685C232.341 84.4934 232.571 84.2779 232.86 84.1222C233.148 83.9664 233.466 83.8504 233.814 83.7741C234.166 83.6946 234.519 83.6316 234.873 83.5852C235.337 83.5256 235.714 83.4808 236.002 83.451C236.294 83.4179 236.506 83.3632 236.638 83.2869C236.774 83.2107 236.842 83.0781 236.842 82.8892V82.8494C236.842 82.3589 236.708 81.9777 236.439 81.706C236.174 81.4342 235.772 81.2983 235.231 81.2983C234.671 81.2983 234.232 81.4209 233.914 81.6662C233.596 81.9115 233.372 82.1733 233.243 82.4517L232.129 82.054C232.328 81.59 232.593 81.2287 232.924 80.9702C233.259 80.7083 233.624 80.526 234.018 80.4233C234.416 80.3172 234.807 80.2642 235.191 80.2642C235.437 80.2642 235.718 80.294 236.037 80.3537C236.358 80.41 236.668 80.5277 236.966 80.7067C237.268 80.8857 237.518 81.1558 237.717 81.517C237.916 81.8783 238.015 82.3622 238.015 82.9688V88H236.842V86.9659H236.782C236.703 87.1316 236.57 87.3089 236.385 87.4979C236.199 87.6868 235.952 87.8475 235.644 87.9801C235.336 88.1127 234.959 88.179 234.515 88.179ZM234.694 87.125C235.158 87.125 235.549 87.0339 235.868 86.8516C236.189 86.6693 236.431 86.4339 236.593 86.1456C236.759 85.8572 236.842 85.554 236.842 85.2358V84.1619C236.792 84.2216 236.683 84.2763 236.514 84.326C236.348 84.3724 236.156 84.4138 235.937 84.4503C235.722 84.4834 235.511 84.5133 235.306 84.5398C235.104 84.563 234.94 84.5829 234.814 84.5994C234.509 84.6392 234.224 84.7038 233.959 84.7933C233.697 84.8795 233.485 85.0104 233.322 85.1861C233.163 85.3584 233.084 85.5937 233.084 85.892C233.084 86.2997 233.234 86.608 233.536 86.8168C233.841 87.0223 234.227 87.125 234.694 87.125Z" fill="black"/>
</g>
<path d="M143 136H268V134H143V136Z" fill="#3561B6" mask="url(#path-10-inside-2_17_169)"/>
<path d="M172.44 155V143.364H173.849V148.545H180.054V143.364H181.463V155H180.054V149.795H173.849V155H172.44ZM186.67 155.205C186.117 155.205 185.616 155.1 185.165 154.892C184.714 154.68 184.356 154.375 184.091 153.977C183.826 153.576 183.693 153.091 183.693 152.523C183.693 152.023 183.792 151.617 183.989 151.307C184.186 150.992 184.449 150.746 184.778 150.568C185.108 150.39 185.472 150.258 185.869 150.17C186.271 150.08 186.674 150.008 187.08 149.955C187.61 149.886 188.04 149.835 188.369 149.801C188.703 149.763 188.945 149.701 189.097 149.614C189.252 149.527 189.33 149.375 189.33 149.159V149.114C189.33 148.553 189.176 148.117 188.869 147.807C188.566 147.496 188.106 147.341 187.489 147.341C186.848 147.341 186.347 147.481 185.983 147.761C185.619 148.042 185.364 148.341 185.216 148.659L183.943 148.205C184.17 147.674 184.473 147.261 184.852 146.966C185.235 146.667 185.652 146.458 186.102 146.341C186.557 146.22 187.004 146.159 187.443 146.159C187.723 146.159 188.045 146.193 188.409 146.261C188.777 146.326 189.131 146.46 189.472 146.665C189.816 146.869 190.102 147.178 190.33 147.591C190.557 148.004 190.67 148.557 190.67 149.25V155H189.33V153.818H189.261C189.17 154.008 189.019 154.21 188.807 154.426C188.595 154.642 188.313 154.826 187.96 154.977C187.608 155.129 187.178 155.205 186.67 155.205ZM186.875 154C187.405 154 187.852 153.896 188.216 153.688C188.583 153.479 188.86 153.21 189.045 152.881C189.235 152.551 189.33 152.205 189.33 151.841V150.614C189.273 150.682 189.148 150.744 188.955 150.801C188.765 150.854 188.545 150.902 188.295 150.943C188.049 150.981 187.809 151.015 187.574 151.045C187.343 151.072 187.155 151.095 187.011 151.114C186.663 151.159 186.337 151.233 186.034 151.335C185.735 151.434 185.492 151.583 185.307 151.784C185.125 151.981 185.034 152.25 185.034 152.591C185.034 153.057 185.206 153.409 185.551 153.648C185.9 153.883 186.341 154 186.875 154ZM192.572 152.773H194.004C194.035 153.167 194.213 153.466 194.538 153.67C194.868 153.875 195.296 153.977 195.822 153.977C196.36 153.977 196.821 153.867 197.203 153.648C197.586 153.424 197.777 153.064 197.777 152.568C197.777 152.277 197.705 152.023 197.561 151.807C197.417 151.587 197.214 151.417 196.953 151.295C196.692 151.174 196.383 151.114 196.027 151.114H194.527V149.909H196.027C196.561 149.909 196.955 149.788 197.209 149.545C197.466 149.303 197.595 149 197.595 148.636C197.595 148.246 197.457 147.934 197.18 147.699C196.904 147.46 196.512 147.341 196.004 147.341C195.493 147.341 195.067 147.456 194.726 147.688C194.385 147.915 194.205 148.208 194.186 148.568H192.777C192.792 148.098 192.936 147.684 193.209 147.324C193.482 146.96 193.853 146.676 194.322 146.472C194.792 146.263 195.33 146.159 195.936 146.159C196.55 146.159 197.082 146.267 197.533 146.483C197.987 146.695 198.338 146.985 198.584 147.352C198.834 147.716 198.959 148.129 198.959 148.591C198.959 149.083 198.821 149.481 198.544 149.784C198.268 150.087 197.921 150.303 197.504 150.432V150.523C197.834 150.545 198.12 150.652 198.362 150.841C198.608 151.027 198.8 151.271 198.936 151.574C199.072 151.873 199.141 152.205 199.141 152.568C199.141 153.098 198.999 153.561 198.714 153.955C198.43 154.345 198.04 154.648 197.544 154.864C197.048 155.076 196.482 155.182 195.845 155.182C195.228 155.182 194.675 155.081 194.186 154.881C193.697 154.676 193.309 154.394 193.021 154.034C192.737 153.67 192.588 153.25 192.572 152.773ZM201.024 155V146.273H204.592C205.532 146.273 206.278 146.485 206.831 146.909C207.384 147.333 207.661 147.894 207.661 148.591C207.661 149.121 207.503 149.532 207.189 149.824C206.875 150.112 206.471 150.307 205.979 150.409C206.301 150.455 206.613 150.568 206.916 150.75C207.223 150.932 207.477 151.182 207.678 151.5C207.878 151.814 207.979 152.201 207.979 152.659C207.979 153.106 207.865 153.506 207.638 153.858C207.411 154.21 207.085 154.489 206.661 154.693C206.236 154.898 205.729 155 205.138 155H201.024ZM202.297 153.773H205.138C205.6 153.773 205.962 153.663 206.223 153.443C206.484 153.223 206.615 152.924 206.615 152.545C206.615 152.095 206.484 151.741 206.223 151.483C205.962 151.222 205.6 151.091 205.138 151.091H202.297V153.773ZM202.297 149.932H204.592C204.952 149.932 205.261 149.883 205.518 149.784C205.776 149.682 205.973 149.538 206.109 149.352C206.25 149.163 206.32 148.939 206.32 148.682C206.32 148.314 206.166 148.027 205.859 147.818C205.553 147.606 205.13 147.5 204.592 147.5H202.297V149.932ZM212.577 155.205C212.024 155.205 211.522 155.1 211.071 154.892C210.62 154.68 210.262 154.375 209.997 153.977C209.732 153.576 209.599 153.091 209.599 152.523C209.599 152.023 209.698 151.617 209.895 151.307C210.092 150.992 210.355 150.746 210.685 150.568C211.014 150.39 211.378 150.258 211.776 150.17C212.177 150.08 212.58 150.008 212.986 149.955C213.516 149.886 213.946 149.835 214.276 149.801C214.609 149.763 214.851 149.701 215.003 149.614C215.158 149.527 215.236 149.375 215.236 149.159V149.114C215.236 148.553 215.082 148.117 214.776 147.807C214.473 147.496 214.012 147.341 213.395 147.341C212.755 147.341 212.253 147.481 211.889 147.761C211.526 148.042 211.27 148.341 211.122 148.659L209.849 148.205C210.077 147.674 210.38 147.261 210.759 146.966C211.141 146.667 211.558 146.458 212.009 146.341C212.463 146.22 212.91 146.159 213.349 146.159C213.63 146.159 213.952 146.193 214.315 146.261C214.683 146.326 215.037 146.46 215.378 146.665C215.723 146.869 216.009 147.178 216.236 147.591C216.463 148.004 216.577 148.557 216.577 149.25V155H215.236V153.818H215.168C215.077 154.008 214.925 154.21 214.713 154.426C214.501 154.642 214.219 154.826 213.866 154.977C213.514 155.129 213.084 155.205 212.577 155.205ZM212.781 154C213.312 154 213.759 153.896 214.122 153.688C214.49 153.479 214.766 153.21 214.952 152.881C215.141 152.551 215.236 152.205 215.236 151.841V150.614C215.179 150.682 215.054 150.744 214.861 150.801C214.671 150.854 214.452 150.902 214.202 150.943C213.955 150.981 213.715 151.015 213.48 151.045C213.249 151.072 213.062 151.095 212.918 151.114C212.569 151.159 212.243 151.233 211.94 151.335C211.641 151.434 211.399 151.583 211.213 151.784C211.031 151.981 210.94 152.25 210.94 152.591C210.94 153.057 211.113 153.409 211.457 153.648C211.806 153.883 212.247 154 212.781 154ZM224.865 150.023V151.273H220.047V150.023H224.865ZM220.365 146.273V155H219.024V146.273H220.365ZM225.888 146.273V155H224.547V146.273H225.888ZM229.678 153.023L233.882 146.273H235.428V155H234.087V148.25L229.905 155H228.337V146.273H229.678V153.023ZM241.543 155.182C240.702 155.182 239.976 154.996 239.366 154.625C238.76 154.25 238.293 153.727 237.963 153.057C237.637 152.383 237.474 151.598 237.474 150.705C237.474 149.811 237.637 149.023 237.963 148.341C238.293 147.655 238.751 147.121 239.338 146.739C239.929 146.352 240.618 146.159 241.406 146.159C241.861 146.159 242.31 146.235 242.753 146.386C243.196 146.538 243.599 146.784 243.963 147.125C244.327 147.462 244.616 147.909 244.832 148.466C245.048 149.023 245.156 149.708 245.156 150.523V151.091H238.429V149.932H243.793C243.793 149.439 243.694 149 243.497 148.614C243.304 148.227 243.027 147.922 242.668 147.699C242.312 147.475 241.891 147.364 241.406 147.364C240.872 147.364 240.41 147.496 240.02 147.761C239.634 148.023 239.336 148.364 239.128 148.784C238.92 149.205 238.815 149.655 238.815 150.136V150.909C238.815 151.568 238.929 152.127 239.156 152.585C239.387 153.04 239.707 153.386 240.116 153.625C240.526 153.86 241.001 153.977 241.543 153.977C241.895 153.977 242.213 153.928 242.497 153.83C242.785 153.727 243.033 153.576 243.241 153.375C243.45 153.17 243.611 152.917 243.724 152.614L245.02 152.977C244.884 153.417 244.654 153.803 244.332 154.136C244.01 154.466 243.613 154.723 243.139 154.909C242.666 155.091 242.134 155.182 241.543 155.182Z" fill="black"/>
</g>
</g>
<defs>
<clipPath id="clip0_17_169">
<rect width="260" height="125" fill="white" transform="translate(8 40)"/>
</clipPath>
<clipPath id="clip1_17_169">
<rect x="8" y="40" width="125" height="125" rx="15" fill="white"/>
</clipPath>
<clipPath id="clip2_17_169">
<rect width="125" height="95" fill="white" transform="translate(8 40)"/>
</clipPath>
<clipPath id="clip3_17_169">
<rect x="143" y="40" width="125" height="125" rx="15" fill="white"/>
</clipPath>
<clipPath id="clip4_17_169">
<rect width="125" height="95" fill="white" transform="translate(143 40)"/>
</clipPath>
</defs>
</svg>
