<svg width="150" height="150" viewBox="0 0 150 150" fill="none" xmlns="http://www.w3.org/2000/svg">
<g filter="url(#filter0_i_24_388)">
<g clip-path="url(#clip0_24_388)">
<rect width="150" height="150" rx="15" fill="white"/>
<rect width="150" height="117" fill="#C3C3C3"/>
<path d="M44.9909 48V40.3636H46.1642V43.6847H46.9397L49.684 40.3636H51.1954L48.113 44.0426L51.2352 48H49.7238L47.2181 44.7784H46.1642V48H44.9909ZM54.7575 48.179C54.2736 48.179 53.8345 48.0878 53.4401 47.9055C53.0457 47.7199 52.7325 47.4531 52.5004 47.1051C52.2684 46.7538 52.1524 46.3295 52.1524 45.8324C52.1524 45.3949 52.2386 45.0402 52.411 44.7685C52.5833 44.4934 52.8137 44.2779 53.102 44.1222C53.3904 43.9664 53.7085 43.8504 54.0566 43.7741C54.4079 43.6946 54.7609 43.6316 55.1155 43.5852C55.5795 43.5256 55.9557 43.4808 56.2441 43.451C56.5357 43.4179 56.7478 43.3632 56.8804 43.2869C57.0163 43.2107 57.0843 43.0781 57.0843 42.8892V42.8494C57.0843 42.3589 56.95 41.9777 56.6816 41.706C56.4164 41.4342 56.0137 41.2983 55.4735 41.2983C54.9133 41.2983 54.4742 41.4209 54.156 41.6662C53.8378 41.9115 53.6141 42.1733 53.4848 42.4517L52.3712 42.054C52.57 41.59 52.8352 41.2287 53.1666 40.9702C53.5014 40.7083 53.866 40.526 54.2604 40.4233C54.6581 40.3172 55.0492 40.2642 55.4337 40.2642C55.6789 40.2642 55.9607 40.294 56.2789 40.3537C56.6003 40.41 56.9102 40.5277 57.2085 40.7067C57.5102 40.8857 57.7604 41.1558 57.9593 41.517C58.1581 41.8783 58.2575 42.3622 58.2575 42.9688V48H57.0843V46.9659H57.0246C56.945 47.1316 56.8125 47.3089 56.6269 47.4979C56.4413 47.6868 56.1943 47.8475 55.8861 47.9801C55.5779 48.1127 55.2017 48.179 54.7575 48.179ZM54.9365 47.125C55.4005 47.125 55.7916 47.0339 56.1098 46.8516C56.4313 46.6693 56.6733 46.4339 56.8357 46.1456C57.0014 45.8572 57.0843 45.554 57.0843 45.2358V44.1619C57.0345 44.2216 56.9252 44.2763 56.7561 44.326C56.5904 44.3724 56.3982 44.4138 56.1794 44.4503C55.964 44.4834 55.7535 44.5133 55.548 44.5398C55.3459 44.563 55.1818 44.5829 55.0558 44.5994C54.7509 44.6392 54.4659 44.7038 54.2007 44.7933C53.9389 44.8795 53.7268 45.0104 53.5644 45.1861C53.4053 45.3584 53.3257 45.5937 53.3257 45.892C53.3257 46.2997 53.4765 46.608 53.7781 46.8168C54.0831 47.0223 54.4692 47.125 54.9365 47.125ZM60.3991 50.8636V40.3636H61.5326V41.5767H61.6718C61.758 41.4441 61.8773 41.2751 62.0297 41.0696C62.1855 40.8608 62.4076 40.6752 62.6959 40.5128C62.9876 40.3471 63.382 40.2642 63.8792 40.2642C64.5222 40.2642 65.0889 40.425 65.5795 40.7464C66.07 41.0679 66.4528 41.5237 66.7279 42.1136C67.003 42.7036 67.1405 43.3996 67.1405 44.2017C67.1405 45.0104 67.003 45.7114 66.7279 46.3047C66.4528 46.8946 66.0716 47.352 65.5844 47.6768C65.0972 47.9983 64.5354 48.1591 63.8991 48.1591C63.4085 48.1591 63.0158 48.0779 62.7208 47.9155C62.4258 47.7498 62.1988 47.5625 62.0397 47.3537C61.8806 47.1416 61.758 46.9659 61.6718 46.8267H61.5724V50.8636H60.3991ZM61.5525 44.1818C61.5525 44.7585 61.637 45.2673 61.806 45.7081C61.9751 46.1456 62.222 46.4886 62.5468 46.7372C62.8716 46.9825 63.2693 47.1051 63.74 47.1051C64.2305 47.1051 64.6398 46.9759 64.968 46.7173C65.2994 46.4555 65.548 46.1042 65.7137 45.6634C65.8827 45.2192 65.9672 44.7254 65.9672 44.1818C65.9672 43.6449 65.8844 43.161 65.7187 42.7301C65.5563 42.2959 65.3093 41.9529 64.9779 41.701C64.6498 41.4458 64.2371 41.3182 63.74 41.3182C63.2627 41.3182 62.8617 41.4392 62.5368 41.6811C62.212 41.9197 61.9668 42.2545 61.801 42.6854C61.6353 43.1129 61.5525 43.6117 61.5525 44.1818ZM67.9323 41.4574V40.3636H74.1368V41.4574H71.6311V48H70.4578V41.4574H67.9323ZM78.6535 48.1591C77.9177 48.1591 77.283 47.9967 76.7494 47.6719C76.2191 47.3438 75.8097 46.8864 75.5214 46.2997C75.2364 45.7098 75.0938 45.0237 75.0938 44.2415C75.0938 43.4593 75.2364 42.7699 75.5214 42.1733C75.8097 41.5734 76.2108 41.1061 76.7245 40.7713C77.2416 40.4332 77.8448 40.2642 78.5342 40.2642C78.9319 40.2642 79.3247 40.3305 79.7124 40.4631C80.1002 40.5956 80.4532 40.8111 80.7714 41.1094C81.0896 41.4044 81.3431 41.7955 81.532 42.2827C81.721 42.7699 81.8154 43.3698 81.8154 44.0824V44.5795H75.9291V43.5653H80.6222C80.6222 43.1345 80.5361 42.75 80.3637 42.4119C80.1947 42.0739 79.9527 41.8071 79.6379 41.6115C79.3263 41.416 78.9584 41.3182 78.5342 41.3182C78.0669 41.3182 77.6625 41.4342 77.3211 41.6662C76.983 41.8949 76.7229 42.1932 76.5406 42.5611C76.3583 42.929 76.2671 43.3234 76.2671 43.7443V44.4205C76.2671 44.9972 76.3666 45.486 76.5654 45.8871C76.7676 46.2848 77.0477 46.5881 77.4056 46.7969C77.7636 47.0024 78.1795 47.1051 78.6535 47.1051C78.9617 47.1051 79.2401 47.062 79.4887 46.9759C79.7406 46.8864 79.9577 46.7538 80.14 46.5781C80.3223 46.3991 80.4632 46.1771 80.5626 45.9119L81.6961 46.2301C81.5768 46.6146 81.3763 46.9527 81.0945 47.2443C80.8128 47.5327 80.4648 47.758 80.0505 47.9205C79.6362 48.0795 79.1705 48.1591 78.6535 48.1591ZM88.711 43.6449V44.7386H84.4951V43.6449H88.711ZM84.7735 40.3636V48H83.6002V40.3636H84.7735ZM89.6059 40.3636V48H88.4326V40.3636H89.6059ZM91.7487 48V40.3636H92.922V43.6847H93.6975L96.4419 40.3636H97.9532L94.8708 44.0426L97.993 48H96.4816L93.9759 44.7784H92.922V48H91.7487ZM101.515 48.179C101.031 48.179 100.592 48.0878 100.198 47.9055C99.8035 47.7199 99.4903 47.4531 99.2583 47.1051C99.0262 46.7538 98.9102 46.3295 98.9102 45.8324C98.9102 45.3949 98.9964 45.0402 99.1688 44.7685C99.3411 44.4934 99.5715 44.2779 99.8598 44.1222C100.148 43.9664 100.466 43.8504 100.814 43.7741C101.166 43.6946 101.519 43.6316 101.873 43.5852C102.337 43.5256 102.714 43.4808 103.002 43.451C103.294 43.4179 103.506 43.3632 103.638 43.2869C103.774 43.2107 103.842 43.0781 103.842 42.8892V42.8494C103.842 42.3589 103.708 41.9777 103.439 41.706C103.174 41.4342 102.772 41.2983 102.231 41.2983C101.671 41.2983 101.232 41.4209 100.914 41.6662C100.596 41.9115 100.372 42.1733 100.243 42.4517L99.129 42.054C99.3279 41.59 99.593 41.2287 99.9244 40.9702C100.259 40.7083 100.624 40.526 101.018 40.4233C101.416 40.3172 101.807 40.2642 102.191 40.2642C102.437 40.2642 102.718 40.294 103.037 40.3537C103.358 40.41 103.668 40.5277 103.966 40.7067C104.268 40.8857 104.518 41.1558 104.717 41.517C104.916 41.8783 105.015 42.3622 105.015 42.9688V48H103.842V46.9659H103.782C103.703 47.1316 103.57 47.3089 103.385 47.4979C103.199 47.6868 102.952 47.8475 102.644 47.9801C102.336 48.1127 101.959 48.179 101.515 48.179ZM101.694 47.125C102.158 47.125 102.549 47.0339 102.868 46.8516C103.189 46.6693 103.431 46.4339 103.593 46.1456C103.759 45.8572 103.842 45.554 103.842 45.2358V44.1619C103.792 44.2216 103.683 44.2763 103.514 44.326C103.348 44.3724 103.156 44.4138 102.937 44.4503C102.722 44.4834 102.511 44.5133 102.306 44.5398C102.104 44.563 101.94 44.5829 101.814 44.5994C101.509 44.6392 101.224 44.7038 100.959 44.7933C100.697 44.8795 100.485 45.0104 100.322 45.1861C100.163 45.3584 100.084 45.5937 100.084 45.892C100.084 46.2997 100.234 46.608 100.536 46.8168C100.841 47.0223 101.227 47.125 101.694 47.125Z" fill="black"/>
<path d="M0 118H150V116H0V118Z" fill="#3561B6" mask="url(#path-3-inside-1_24_388)"/>
<path d="M39.4403 138V126.364H40.8494V131.545H47.054V126.364H48.4631V138H47.054V132.795H40.8494V138H39.4403ZM53.6705 138.205C53.1174 138.205 52.6155 138.1 52.1648 137.892C51.714 137.68 51.3561 137.375 51.0909 136.977C50.8258 136.576 50.6932 136.091 50.6932 135.523C50.6932 135.023 50.7917 134.617 50.9886 134.307C51.1856 133.992 51.4489 133.746 51.7784 133.568C52.108 133.39 52.4716 133.258 52.8693 133.17C53.2708 133.08 53.6742 133.008 54.0795 132.955C54.6098 132.886 55.0398 132.835 55.3693 132.801C55.7027 132.763 55.9451 132.701 56.0966 132.614C56.2519 132.527 56.3295 132.375 56.3295 132.159V132.114C56.3295 131.553 56.1761 131.117 55.8693 130.807C55.5663 130.496 55.1061 130.341 54.4886 130.341C53.8485 130.341 53.3466 130.481 52.983 130.761C52.6193 131.042 52.3636 131.341 52.2159 131.659L50.9432 131.205C51.1705 130.674 51.4735 130.261 51.8523 129.966C52.2348 129.667 52.6515 129.458 53.1023 129.341C53.5568 129.22 54.0038 129.159 54.4432 129.159C54.7235 129.159 55.0455 129.193 55.4091 129.261C55.7765 129.326 56.1307 129.46 56.4716 129.665C56.8163 129.869 57.1023 130.178 57.3295 130.591C57.5568 131.004 57.6705 131.557 57.6705 132.25V138H56.3295V136.818H56.2614C56.1705 137.008 56.0189 137.21 55.8068 137.426C55.5947 137.642 55.3125 137.826 54.9602 137.977C54.608 138.129 54.178 138.205 53.6705 138.205ZM53.875 137C54.4053 137 54.8523 136.896 55.2159 136.688C55.5833 136.479 55.8598 136.21 56.0455 135.881C56.2348 135.551 56.3295 135.205 56.3295 134.841V133.614C56.2727 133.682 56.1477 133.744 55.9545 133.801C55.7652 133.854 55.5455 133.902 55.2955 133.943C55.0492 133.981 54.8087 134.015 54.5739 134.045C54.3428 134.072 54.1553 134.095 54.0114 134.114C53.6629 134.159 53.3371 134.233 53.0341 134.335C52.7348 134.434 52.4924 134.583 52.3068 134.784C52.125 134.981 52.0341 135.25 52.0341 135.591C52.0341 136.057 52.2064 136.409 52.5511 136.648C52.8996 136.883 53.3409 137 53.875 137ZM59.5724 135.773H61.0043C61.0346 136.167 61.2126 136.466 61.5384 136.67C61.8679 136.875 62.2959 136.977 62.8224 136.977C63.3603 136.977 63.8205 136.867 64.2031 136.648C64.5857 136.424 64.777 136.064 64.777 135.568C64.777 135.277 64.705 135.023 64.5611 134.807C64.4171 134.587 64.2145 134.417 63.9531 134.295C63.6918 134.174 63.383 134.114 63.027 134.114H61.527V132.909H63.027C63.5611 132.909 63.955 132.788 64.2088 132.545C64.4664 132.303 64.5952 132 64.5952 131.636C64.5952 131.246 64.4569 130.934 64.1804 130.699C63.9039 130.46 63.5118 130.341 63.0043 130.341C62.4929 130.341 62.0668 130.456 61.7259 130.688C61.3849 130.915 61.205 131.208 61.1861 131.568H59.777C59.7921 131.098 59.9361 130.684 60.2088 130.324C60.4815 129.96 60.8527 129.676 61.3224 129.472C61.7921 129.263 62.33 129.159 62.9361 129.159C63.5497 129.159 64.0819 129.267 64.5327 129.483C64.9872 129.695 65.3376 129.985 65.5838 130.352C65.8338 130.716 65.9588 131.129 65.9588 131.591C65.9588 132.083 65.8205 132.481 65.544 132.784C65.2675 133.087 64.9209 133.303 64.5043 133.432V133.523C64.8338 133.545 65.1198 133.652 65.3622 133.841C65.6084 134.027 65.7997 134.271 65.9361 134.574C66.0724 134.873 66.1406 135.205 66.1406 135.568C66.1406 136.098 65.9986 136.561 65.7145 136.955C65.4304 137.345 65.0402 137.648 64.544 137.864C64.0478 138.076 63.4815 138.182 62.8452 138.182C62.2277 138.182 61.6747 138.081 61.1861 137.881C60.6974 137.676 60.3092 137.394 60.0213 137.034C59.7372 136.67 59.5876 136.25 59.5724 135.773ZM68.0241 138V129.273H71.5923C72.5317 129.273 73.2779 129.485 73.831 129.909C74.384 130.333 74.6605 130.894 74.6605 131.591C74.6605 132.121 74.5033 132.532 74.1889 132.824C73.8745 133.112 73.4711 133.307 72.9787 133.409C73.3007 133.455 73.6132 133.568 73.9162 133.75C74.223 133.932 74.4768 134.182 74.6776 134.5C74.8783 134.814 74.9787 135.201 74.9787 135.659C74.9787 136.106 74.8651 136.506 74.6378 136.858C74.4105 137.21 74.0848 137.489 73.6605 137.693C73.2363 137.898 72.7287 138 72.1378 138H68.0241ZM69.2969 136.773H72.1378C72.5999 136.773 72.9616 136.663 73.223 136.443C73.4844 136.223 73.6151 135.924 73.6151 135.545C73.6151 135.095 73.4844 134.741 73.223 134.483C72.9616 134.222 72.5999 134.091 72.1378 134.091H69.2969V136.773ZM69.2969 132.932H71.5923C71.9522 132.932 72.2609 132.883 72.5185 132.784C72.776 132.682 72.973 132.538 73.1094 132.352C73.2495 132.163 73.3196 131.939 73.3196 131.682C73.3196 131.314 73.1662 131.027 72.8594 130.818C72.5526 130.606 72.1302 130.5 71.5923 130.5H69.2969V132.932ZM79.5767 138.205C79.0237 138.205 78.5218 138.1 78.071 137.892C77.6203 137.68 77.2623 137.375 76.9972 136.977C76.732 136.576 76.5994 136.091 76.5994 135.523C76.5994 135.023 76.6979 134.617 76.8949 134.307C77.0919 133.992 77.3551 133.746 77.6847 133.568C78.0142 133.39 78.3778 133.258 78.7756 133.17C79.1771 133.08 79.5805 133.008 79.9858 132.955C80.5161 132.886 80.946 132.835 81.2756 132.801C81.6089 132.763 81.8513 132.701 82.0028 132.614C82.1581 132.527 82.2358 132.375 82.2358 132.159V132.114C82.2358 131.553 82.0824 131.117 81.7756 130.807C81.4725 130.496 81.0123 130.341 80.3949 130.341C79.7547 130.341 79.2528 130.481 78.8892 130.761C78.5256 131.042 78.2699 131.341 78.1222 131.659L76.8494 131.205C77.0767 130.674 77.3797 130.261 77.7585 129.966C78.1411 129.667 78.5578 129.458 79.0085 129.341C79.4631 129.22 79.91 129.159 80.3494 129.159C80.6297 129.159 80.9517 129.193 81.3153 129.261C81.6828 129.326 82.0369 129.46 82.3778 129.665C82.7225 129.869 83.0085 130.178 83.2358 130.591C83.4631 131.004 83.5767 131.557 83.5767 132.25V138H82.2358V136.818H82.1676C82.0767 137.008 81.9252 137.21 81.7131 137.426C81.5009 137.642 81.2188 137.826 80.8665 137.977C80.5142 138.129 80.0843 138.205 79.5767 138.205ZM79.7812 137C80.3116 137 80.7585 136.896 81.1222 136.688C81.4896 136.479 81.7661 136.21 81.9517 135.881C82.1411 135.551 82.2358 135.205 82.2358 134.841V133.614C82.179 133.682 82.054 133.744 81.8608 133.801C81.6714 133.854 81.4517 133.902 81.2017 133.943C80.9555 133.981 80.715 134.015 80.4801 134.045C80.2491 134.072 80.0616 134.095 79.9176 134.114C79.5691 134.159 79.2434 134.233 78.9403 134.335C78.6411 134.434 78.3987 134.583 78.2131 134.784C78.0313 134.981 77.9403 135.25 77.9403 135.591C77.9403 136.057 78.1127 136.409 78.4574 136.648C78.8059 136.883 79.2472 137 79.7812 137ZM91.8651 133.023V134.273H87.0469V133.023H91.8651ZM87.3651 129.273V138H86.0241V129.273H87.3651ZM92.8878 129.273V138H91.5469V129.273H92.8878ZM96.6776 136.023L100.882 129.273H102.428V138H101.087V131.25L96.9048 138H95.3366V129.273H96.6776V136.023ZM108.543 138.182C107.702 138.182 106.976 137.996 106.366 137.625C105.76 137.25 105.293 136.727 104.963 136.057C104.637 135.383 104.474 134.598 104.474 133.705C104.474 132.811 104.637 132.023 104.963 131.341C105.293 130.655 105.751 130.121 106.338 129.739C106.929 129.352 107.618 129.159 108.406 129.159C108.861 129.159 109.31 129.235 109.753 129.386C110.196 129.538 110.599 129.784 110.963 130.125C111.327 130.462 111.616 130.909 111.832 131.466C112.048 132.023 112.156 132.708 112.156 133.523V134.091H105.429V132.932H110.793C110.793 132.439 110.694 132 110.497 131.614C110.304 131.227 110.027 130.922 109.668 130.699C109.312 130.475 108.891 130.364 108.406 130.364C107.872 130.364 107.41 130.496 107.02 130.761C106.634 131.023 106.336 131.364 106.128 131.784C105.92 132.205 105.815 132.655 105.815 133.136V133.909C105.815 134.568 105.929 135.127 106.156 135.585C106.387 136.04 106.707 136.386 107.116 136.625C107.526 136.86 108.001 136.977 108.543 136.977C108.895 136.977 109.213 136.928 109.497 136.83C109.785 136.727 110.033 136.576 110.241 136.375C110.45 136.17 110.611 135.917 110.724 135.614L112.02 135.977C111.884 136.417 111.654 136.803 111.332 137.136C111.01 137.466 110.613 137.723 110.139 137.909C109.666 138.091 109.134 138.182 108.543 138.182Z" fill="black"/>
</g>
</g>
<defs>
<filter id="filter0_i_24_388" x="0" y="0" width="150" height="150" filterUnits="userSpaceOnUse" color-interpolation-filters="sRGB">
<feFlood flood-opacity="0" result="BackgroundImageFix"/>
<feBlend mode="normal" in="SourceGraphic" in2="BackgroundImageFix" result="shape"/>
<feColorMatrix in="SourceAlpha" type="matrix" values="0 0 0 0 0 0 0 0 0 0 0 0 0 0 0 0 0 0 127 0" result="hardAlpha"/>
<feMorphology radius="2" operator="erode" in="SourceAlpha" result="effect1_innerShadow_24_388"/>
<feOffset/>
<feGaussianBlur stdDeviation="2"/>
<feComposite in2="hardAlpha" operator="arithmetic" k2="-1" k3="1"/>
<feColorMatrix type="matrix" values="0 0 0 0 0.533333 0 0 0 0 0.686275 0 0 0 0 0.980392 0 0 0 1 0"/>
<feBlend mode="normal" in2="shape" result="effect1_innerShadow_24_388"/>
</filter>
<clipPath id="clip0_24_388">
<rect width="150" height="150" rx="15" fill="white"/>
</clipPath>
</defs>
</svg>
