<svg width="24" height="24" viewBox="0 0 24 24" fill="none" xmlns="http://www.w3.org/2000/svg">
<rect width="24" height="24" rx="12" fill="#88AFFA"/>
<path d="M19 11.998C19 12.5503 18.5523 12.998 18 12.998H13L11 13L5.99967 12.9983C5.44751 12.9981 5 12.5503 5 11.9982V11.9982C5 11.4459 5.44772 10.998 6 10.998H10.999C10.9996 10.998 11 10.9984 11 10.999V10.999C11 10.9995 11.0004 11 11.001 11L12.999 11C12.9995 11 13 10.9995 13 10.999V10.999C13 10.9984 13.0005 10.998 13.001 10.998H18C18.5523 10.998 19 11.4457 19 11.998V11.998Z" fill="black"/>
</svg>
