<svg width="24" height="24" viewBox="0 0 24 24" fill="none" xmlns="http://www.w3.org/2000/svg">
<g clip-path="url(#clip0_45_533)">
<rect width="24" height="24" rx="12" fill="#88AFFA"/>
<path d="M19 11.998C19 12.5503 18.5523 12.998 18 12.998H14C13.4477 12.998 13 13.4457 13 13.998V17.998C13 18.5503 12.5523 18.998 12 18.998V18.998C11.4477 18.998 11 18.5503 11 17.998V13.998C11 13.4457 10.5523 12.998 10 12.998H6C5.44772 12.998 5 12.5503 5 11.998V11.998C5 11.4457 5.44772 10.998 6 10.998H10C10.5523 10.998 11 10.5503 11 9.998V5.998C11 5.44572 11.4477 4.998 12 4.998V4.998C12.5523 4.998 13 5.44572 13 5.998V9.998C13 10.5503 13.4477 10.998 14 10.998H18C18.5523 10.998 19 11.4457 19 11.998V11.998Z" fill="black"/>
</g>
<defs>
<clipPath id="clip0_45_533">
<rect width="24" height="24" rx="12" fill="white"/>
</clipPath>
</defs>
</svg>
